%TF.GenerationSoftware,KiCad,Pcbnew,9.0.0*%
%TF.CreationDate,2025-03-04T05:22:46+01:00*%
%TF.ProjectId,PSU5V,50535535-562e-46b6-9963-61645f706362,rev?*%
%TF.SameCoordinates,Original*%
%TF.FileFunction,Copper,L1,Top*%
%TF.FilePolarity,Positive*%
%FSLAX46Y46*%
G04 Gerber Fmt 4.6, Leading zero omitted, Abs format (unit mm)*
G04 Created by KiCad (PCBNEW 9.0.0) date 2025-03-04 05:22:46*
%MOMM*%
%LPD*%
G01*
G04 APERTURE LIST*
G04 Aperture macros list*
%AMRoundRect*
0 Rectangle with rounded corners*
0 $1 Rounding radius*
0 $2 $3 $4 $5 $6 $7 $8 $9 X,Y pos of 4 corners*
0 Add a 4 corners polygon primitive as box body*
4,1,4,$2,$3,$4,$5,$6,$7,$8,$9,$2,$3,0*
0 Add four circle primitives for the rounded corners*
1,1,$1+$1,$2,$3*
1,1,$1+$1,$4,$5*
1,1,$1+$1,$6,$7*
1,1,$1+$1,$8,$9*
0 Add four rect primitives between the rounded corners*
20,1,$1+$1,$2,$3,$4,$5,0*
20,1,$1+$1,$4,$5,$6,$7,0*
20,1,$1+$1,$6,$7,$8,$9,0*
20,1,$1+$1,$8,$9,$2,$3,0*%
G04 Aperture macros list end*
%ADD10C,0.060000*%
%TA.AperFunction,NonConductor*%
%ADD11C,0.060000*%
%TD*%
%ADD12C,0.075000*%
%TA.AperFunction,NonConductor*%
%ADD13C,0.075000*%
%TD*%
%TA.AperFunction,SMDPad,CuDef*%
%ADD14RoundRect,0.218750X0.218750X0.256250X-0.218750X0.256250X-0.218750X-0.256250X0.218750X-0.256250X0*%
%TD*%
%TA.AperFunction,SMDPad,CuDef*%
%ADD15RoundRect,0.225000X0.225000X0.250000X-0.225000X0.250000X-0.225000X-0.250000X0.225000X-0.250000X0*%
%TD*%
%TA.AperFunction,ComponentPad*%
%ADD16R,1.600000X1.600000*%
%TD*%
%TA.AperFunction,ComponentPad*%
%ADD17C,1.600000*%
%TD*%
%TA.AperFunction,SMDPad,CuDef*%
%ADD18R,1.750000X0.950000*%
%TD*%
%TA.AperFunction,SMDPad,CuDef*%
%ADD19R,1.750000X3.200000*%
%TD*%
%TA.AperFunction,ComponentPad*%
%ADD20C,1.300000*%
%TD*%
%TA.AperFunction,SMDPad,CuDef*%
%ADD21R,1.400000X1.000000*%
%TD*%
%TA.AperFunction,ViaPad*%
%ADD22C,1.500000*%
%TD*%
%TA.AperFunction,Conductor*%
%ADD23C,0.200000*%
%TD*%
G04 APERTURE END LIST*
D10*
D11*
X61736044Y-68254451D02*
X61707473Y-68240165D01*
X61707473Y-68240165D02*
X61664615Y-68240165D01*
X61664615Y-68240165D02*
X61621758Y-68254451D01*
X61621758Y-68254451D02*
X61593187Y-68283022D01*
X61593187Y-68283022D02*
X61578901Y-68311594D01*
X61578901Y-68311594D02*
X61564615Y-68368737D01*
X61564615Y-68368737D02*
X61564615Y-68411594D01*
X61564615Y-68411594D02*
X61578901Y-68468737D01*
X61578901Y-68468737D02*
X61593187Y-68497308D01*
X61593187Y-68497308D02*
X61621758Y-68525880D01*
X61621758Y-68525880D02*
X61664615Y-68540165D01*
X61664615Y-68540165D02*
X61693187Y-68540165D01*
X61693187Y-68540165D02*
X61736044Y-68525880D01*
X61736044Y-68525880D02*
X61750330Y-68511594D01*
X61750330Y-68511594D02*
X61750330Y-68411594D01*
X61750330Y-68411594D02*
X61693187Y-68411594D01*
X61878901Y-68540165D02*
X61878901Y-68240165D01*
X61878901Y-68240165D02*
X62050330Y-68540165D01*
X62050330Y-68540165D02*
X62050330Y-68240165D01*
X62193187Y-68540165D02*
X62193187Y-68240165D01*
X62193187Y-68240165D02*
X62264616Y-68240165D01*
X62264616Y-68240165D02*
X62307473Y-68254451D01*
X62307473Y-68254451D02*
X62336044Y-68283022D01*
X62336044Y-68283022D02*
X62350330Y-68311594D01*
X62350330Y-68311594D02*
X62364616Y-68368737D01*
X62364616Y-68368737D02*
X62364616Y-68411594D01*
X62364616Y-68411594D02*
X62350330Y-68468737D01*
X62350330Y-68468737D02*
X62336044Y-68497308D01*
X62336044Y-68497308D02*
X62307473Y-68525880D01*
X62307473Y-68525880D02*
X62264616Y-68540165D01*
X62264616Y-68540165D02*
X62193187Y-68540165D01*
X62421759Y-68568737D02*
X62650330Y-68568737D01*
X62778901Y-68240165D02*
X62836044Y-68240165D01*
X62836044Y-68240165D02*
X62864615Y-68254451D01*
X62864615Y-68254451D02*
X62893187Y-68283022D01*
X62893187Y-68283022D02*
X62907472Y-68340165D01*
X62907472Y-68340165D02*
X62907472Y-68440165D01*
X62907472Y-68440165D02*
X62893187Y-68497308D01*
X62893187Y-68497308D02*
X62864615Y-68525880D01*
X62864615Y-68525880D02*
X62836044Y-68540165D01*
X62836044Y-68540165D02*
X62778901Y-68540165D01*
X62778901Y-68540165D02*
X62750330Y-68525880D01*
X62750330Y-68525880D02*
X62721758Y-68497308D01*
X62721758Y-68497308D02*
X62707472Y-68440165D01*
X62707472Y-68440165D02*
X62707472Y-68340165D01*
X62707472Y-68340165D02*
X62721758Y-68283022D01*
X62721758Y-68283022D02*
X62750330Y-68254451D01*
X62750330Y-68254451D02*
X62778901Y-68240165D01*
X63036044Y-68240165D02*
X63036044Y-68483022D01*
X63036044Y-68483022D02*
X63050330Y-68511594D01*
X63050330Y-68511594D02*
X63064616Y-68525880D01*
X63064616Y-68525880D02*
X63093187Y-68540165D01*
X63093187Y-68540165D02*
X63150330Y-68540165D01*
X63150330Y-68540165D02*
X63178901Y-68525880D01*
X63178901Y-68525880D02*
X63193187Y-68511594D01*
X63193187Y-68511594D02*
X63207473Y-68483022D01*
X63207473Y-68483022D02*
X63207473Y-68240165D01*
X63307473Y-68240165D02*
X63478902Y-68240165D01*
X63393187Y-68540165D02*
X63393187Y-68240165D01*
D10*
D11*
X54932044Y-68240165D02*
X55032044Y-68540165D01*
X55032044Y-68540165D02*
X55132044Y-68240165D01*
X55403473Y-68511594D02*
X55389187Y-68525880D01*
X55389187Y-68525880D02*
X55346330Y-68540165D01*
X55346330Y-68540165D02*
X55317758Y-68540165D01*
X55317758Y-68540165D02*
X55274901Y-68525880D01*
X55274901Y-68525880D02*
X55246330Y-68497308D01*
X55246330Y-68497308D02*
X55232044Y-68468737D01*
X55232044Y-68468737D02*
X55217758Y-68411594D01*
X55217758Y-68411594D02*
X55217758Y-68368737D01*
X55217758Y-68368737D02*
X55232044Y-68311594D01*
X55232044Y-68311594D02*
X55246330Y-68283022D01*
X55246330Y-68283022D02*
X55274901Y-68254451D01*
X55274901Y-68254451D02*
X55317758Y-68240165D01*
X55317758Y-68240165D02*
X55346330Y-68240165D01*
X55346330Y-68240165D02*
X55389187Y-68254451D01*
X55389187Y-68254451D02*
X55403473Y-68268737D01*
X55703473Y-68511594D02*
X55689187Y-68525880D01*
X55689187Y-68525880D02*
X55646330Y-68540165D01*
X55646330Y-68540165D02*
X55617758Y-68540165D01*
X55617758Y-68540165D02*
X55574901Y-68525880D01*
X55574901Y-68525880D02*
X55546330Y-68497308D01*
X55546330Y-68497308D02*
X55532044Y-68468737D01*
X55532044Y-68468737D02*
X55517758Y-68411594D01*
X55517758Y-68411594D02*
X55517758Y-68368737D01*
X55517758Y-68368737D02*
X55532044Y-68311594D01*
X55532044Y-68311594D02*
X55546330Y-68283022D01*
X55546330Y-68283022D02*
X55574901Y-68254451D01*
X55574901Y-68254451D02*
X55617758Y-68240165D01*
X55617758Y-68240165D02*
X55646330Y-68240165D01*
X55646330Y-68240165D02*
X55689187Y-68254451D01*
X55689187Y-68254451D02*
X55703473Y-68268737D01*
X55760616Y-68568737D02*
X55989187Y-68568737D01*
X56117758Y-68240165D02*
X56174901Y-68240165D01*
X56174901Y-68240165D02*
X56203472Y-68254451D01*
X56203472Y-68254451D02*
X56232044Y-68283022D01*
X56232044Y-68283022D02*
X56246329Y-68340165D01*
X56246329Y-68340165D02*
X56246329Y-68440165D01*
X56246329Y-68440165D02*
X56232044Y-68497308D01*
X56232044Y-68497308D02*
X56203472Y-68525880D01*
X56203472Y-68525880D02*
X56174901Y-68540165D01*
X56174901Y-68540165D02*
X56117758Y-68540165D01*
X56117758Y-68540165D02*
X56089187Y-68525880D01*
X56089187Y-68525880D02*
X56060615Y-68497308D01*
X56060615Y-68497308D02*
X56046329Y-68440165D01*
X56046329Y-68440165D02*
X56046329Y-68340165D01*
X56046329Y-68340165D02*
X56060615Y-68283022D01*
X56060615Y-68283022D02*
X56089187Y-68254451D01*
X56089187Y-68254451D02*
X56117758Y-68240165D01*
X56374901Y-68240165D02*
X56374901Y-68483022D01*
X56374901Y-68483022D02*
X56389187Y-68511594D01*
X56389187Y-68511594D02*
X56403473Y-68525880D01*
X56403473Y-68525880D02*
X56432044Y-68540165D01*
X56432044Y-68540165D02*
X56489187Y-68540165D01*
X56489187Y-68540165D02*
X56517758Y-68525880D01*
X56517758Y-68525880D02*
X56532044Y-68511594D01*
X56532044Y-68511594D02*
X56546330Y-68483022D01*
X56546330Y-68483022D02*
X56546330Y-68240165D01*
X56646330Y-68240165D02*
X56817759Y-68240165D01*
X56732044Y-68540165D02*
X56732044Y-68240165D01*
D12*
D13*
X55449913Y-59095385D02*
X55549913Y-59395385D01*
X55549913Y-59395385D02*
X55649913Y-59095385D01*
X55921342Y-59366814D02*
X55907056Y-59381100D01*
X55907056Y-59381100D02*
X55864199Y-59395385D01*
X55864199Y-59395385D02*
X55835627Y-59395385D01*
X55835627Y-59395385D02*
X55792770Y-59381100D01*
X55792770Y-59381100D02*
X55764199Y-59352528D01*
X55764199Y-59352528D02*
X55749913Y-59323957D01*
X55749913Y-59323957D02*
X55735627Y-59266814D01*
X55735627Y-59266814D02*
X55735627Y-59223957D01*
X55735627Y-59223957D02*
X55749913Y-59166814D01*
X55749913Y-59166814D02*
X55764199Y-59138242D01*
X55764199Y-59138242D02*
X55792770Y-59109671D01*
X55792770Y-59109671D02*
X55835627Y-59095385D01*
X55835627Y-59095385D02*
X55864199Y-59095385D01*
X55864199Y-59095385D02*
X55907056Y-59109671D01*
X55907056Y-59109671D02*
X55921342Y-59123957D01*
X56221342Y-59366814D02*
X56207056Y-59381100D01*
X56207056Y-59381100D02*
X56164199Y-59395385D01*
X56164199Y-59395385D02*
X56135627Y-59395385D01*
X56135627Y-59395385D02*
X56092770Y-59381100D01*
X56092770Y-59381100D02*
X56064199Y-59352528D01*
X56064199Y-59352528D02*
X56049913Y-59323957D01*
X56049913Y-59323957D02*
X56035627Y-59266814D01*
X56035627Y-59266814D02*
X56035627Y-59223957D01*
X56035627Y-59223957D02*
X56049913Y-59166814D01*
X56049913Y-59166814D02*
X56064199Y-59138242D01*
X56064199Y-59138242D02*
X56092770Y-59109671D01*
X56092770Y-59109671D02*
X56135627Y-59095385D01*
X56135627Y-59095385D02*
X56164199Y-59095385D01*
X56164199Y-59095385D02*
X56207056Y-59109671D01*
X56207056Y-59109671D02*
X56221342Y-59123957D01*
X56278485Y-59423957D02*
X56507056Y-59423957D01*
X56578484Y-59395385D02*
X56578484Y-59095385D01*
X56721341Y-59395385D02*
X56721341Y-59095385D01*
X56721341Y-59095385D02*
X56892770Y-59395385D01*
X56892770Y-59395385D02*
X56892770Y-59095385D01*
D10*
D11*
X61736044Y-59110451D02*
X61707473Y-59096165D01*
X61707473Y-59096165D02*
X61664615Y-59096165D01*
X61664615Y-59096165D02*
X61621758Y-59110451D01*
X61621758Y-59110451D02*
X61593187Y-59139022D01*
X61593187Y-59139022D02*
X61578901Y-59167594D01*
X61578901Y-59167594D02*
X61564615Y-59224737D01*
X61564615Y-59224737D02*
X61564615Y-59267594D01*
X61564615Y-59267594D02*
X61578901Y-59324737D01*
X61578901Y-59324737D02*
X61593187Y-59353308D01*
X61593187Y-59353308D02*
X61621758Y-59381880D01*
X61621758Y-59381880D02*
X61664615Y-59396165D01*
X61664615Y-59396165D02*
X61693187Y-59396165D01*
X61693187Y-59396165D02*
X61736044Y-59381880D01*
X61736044Y-59381880D02*
X61750330Y-59367594D01*
X61750330Y-59367594D02*
X61750330Y-59267594D01*
X61750330Y-59267594D02*
X61693187Y-59267594D01*
X61878901Y-59396165D02*
X61878901Y-59096165D01*
X61878901Y-59096165D02*
X62050330Y-59396165D01*
X62050330Y-59396165D02*
X62050330Y-59096165D01*
X62193187Y-59396165D02*
X62193187Y-59096165D01*
X62193187Y-59096165D02*
X62264616Y-59096165D01*
X62264616Y-59096165D02*
X62307473Y-59110451D01*
X62307473Y-59110451D02*
X62336044Y-59139022D01*
X62336044Y-59139022D02*
X62350330Y-59167594D01*
X62350330Y-59167594D02*
X62364616Y-59224737D01*
X62364616Y-59224737D02*
X62364616Y-59267594D01*
X62364616Y-59267594D02*
X62350330Y-59324737D01*
X62350330Y-59324737D02*
X62336044Y-59353308D01*
X62336044Y-59353308D02*
X62307473Y-59381880D01*
X62307473Y-59381880D02*
X62264616Y-59396165D01*
X62264616Y-59396165D02*
X62193187Y-59396165D01*
X62421759Y-59424737D02*
X62650330Y-59424737D01*
X62721758Y-59396165D02*
X62721758Y-59096165D01*
X62864615Y-59396165D02*
X62864615Y-59096165D01*
X62864615Y-59096165D02*
X63036044Y-59396165D01*
X63036044Y-59396165D02*
X63036044Y-59096165D01*
D14*
%TO.P,F1,1*%
%TO.N,VCC*%
X51816000Y-61976000D03*
%TO.P,F1,2*%
%TO.N,Net-(T1-PRI_1)*%
X50241000Y-61976000D03*
%TD*%
D15*
%TO.P,C2,1*%
%TO.N,Net-(BR1-+)*%
X51803500Y-64486000D03*
%TO.P,C2,2*%
%TO.N,Net-(BR1--)*%
X50253500Y-64486000D03*
%TD*%
D16*
%TO.P,C1,1*%
%TO.N,Net-(BR1-+)*%
X42728000Y-63500000D03*
D17*
%TO.P,C1,2*%
%TO.N,Net-(BR1--)*%
X46228000Y-63500000D03*
%TD*%
D18*
%TO.P,IC1,1,INPUT*%
%TO.N,Net-(BR1-+)*%
X56286000Y-61708000D03*
%TO.P,IC1,2,GND_1*%
%TO.N,Net-(BR1--)*%
X56286000Y-64008000D03*
%TO.P,IC1,3,OUTPUT*%
%TO.N,VCC*%
X56286000Y-66308000D03*
D19*
%TO.P,IC1,4,GND_2*%
%TO.N,GND*%
X62586000Y-64008000D03*
%TD*%
D20*
%TO.P,T1,1,PRI_1*%
%TO.N,Net-(T1-PRI_1)*%
X39704000Y-52512000D03*
%TO.P,T1,5,PRI_2*%
%TO.N,AC*%
X59704000Y-52512000D03*
%TO.P,T1,7,SEC_1*%
%TO.N,Net-(BR1-~_1)*%
X54704000Y-32512000D03*
%TO.P,T1,9,SEC_2*%
%TO.N,Net-(BR1-~_2)*%
X44704000Y-32512000D03*
%TD*%
D21*
%TO.P,BR1,1,+*%
%TO.N,Net-(BR1-+)*%
X37499000Y-60212000D03*
%TO.P,BR1,2,~_1*%
%TO.N,Net-(BR1-~_1)*%
X37499000Y-66362000D03*
%TO.P,BR1,3,~_2*%
%TO.N,Net-(BR1-~_2)*%
X34959000Y-66362000D03*
%TO.P,BR1,4,-*%
%TO.N,Net-(BR1--)*%
X34959000Y-60212000D03*
%TD*%
D22*
%TO.N,GND*%
X60452000Y-68580000D03*
%TO.N,AC*%
X60452000Y-59436000D03*
%TO.N,VCC*%
X57912000Y-68580000D03*
X57912000Y-59436000D03*
%TD*%
D23*
%TO.N,GND*%
X60452000Y-68580000D02*
X60960000Y-68580000D01*
X60960000Y-68580000D02*
X62586000Y-66954000D01*
X62586000Y-66954000D02*
X62586000Y-64008000D01*
%TO.N,AC*%
X60452000Y-58420000D02*
X59704000Y-57672000D01*
X60452000Y-59436000D02*
X60452000Y-58420000D01*
X59704000Y-57672000D02*
X59704000Y-52512000D01*
%TO.N,VCC*%
X51816000Y-61976000D02*
X54024543Y-59767457D01*
X57912000Y-68580000D02*
X56286000Y-66954000D01*
X57912000Y-59436000D02*
X57912000Y-58928000D01*
X54024543Y-59767457D02*
X57179543Y-59767457D01*
X57179543Y-59767457D02*
X57511000Y-59436000D01*
X56286000Y-66954000D02*
X56286000Y-66308000D01*
%TO.N,Net-(BR1-~_1)*%
X36234100Y-61869000D02*
X37499000Y-63133900D01*
X36469000Y-61634100D02*
X36234100Y-61869000D01*
X36469000Y-50747000D02*
X36469000Y-61634100D01*
X54704000Y-32512000D02*
X36469000Y-50747000D01*
X37499000Y-63133900D02*
X37499000Y-66362000D01*
%TO.N,Net-(BR1-~_2)*%
X36068000Y-41148000D02*
X36068000Y-61468000D01*
X34959000Y-62577000D02*
X34959000Y-66362000D01*
X44704000Y-32512000D02*
X36068000Y-41148000D01*
X36068000Y-61468000D02*
X34959000Y-62577000D01*
%TO.N,Net-(BR1-+)*%
X42728000Y-63500000D02*
X44760000Y-61468000D01*
X56286000Y-61708000D02*
X54581500Y-61708000D01*
X37499000Y-60212000D02*
X39440000Y-60212000D01*
X48516900Y-61468000D02*
X51534900Y-64486000D01*
X51534900Y-64486000D02*
X51803500Y-64486000D01*
X44760000Y-61468000D02*
X48516900Y-61468000D01*
X54581500Y-61708000D02*
X51803500Y-64486000D01*
X39440000Y-60212000D02*
X42728000Y-63500000D01*
%TO.N,Net-(BR1--)*%
X33958000Y-67163000D02*
X42565000Y-67163000D01*
X33958000Y-61213000D02*
X33958000Y-67163000D01*
X55032000Y-65262000D02*
X56286000Y-64008000D01*
X34959000Y-60212000D02*
X33958000Y-61213000D01*
X51029500Y-65262000D02*
X55032000Y-65262000D01*
X50253500Y-64486000D02*
X47214000Y-64486000D01*
X50253500Y-64486000D02*
X51029500Y-65262000D01*
X47214000Y-64486000D02*
X46228000Y-63500000D01*
X42565000Y-67163000D02*
X46228000Y-63500000D01*
%TO.N,Net-(T1-PRI_1)*%
X40777000Y-52512000D02*
X50241000Y-61976000D01*
X39704000Y-52512000D02*
X40777000Y-52512000D01*
%TD*%
M02*
